<?xml version="1.0" encoding="utf-8"?>
<svg version="1.1" id="Layer_1" xmlns="http://www.w3.org/2000/svg" xmlns:xlink="http://www.w3.org/1999/xlink" x="0px" y="0px"
	 viewBox="0 0 128 128" enable-background="new 0 0 128 128" xml:space="preserve">
<path fill-rule="evenodd" clip-rule="evenodd" fill="#333333" d="M103.384 47.6538 103.569 47.9341C107.033 54.8017 109 62.6716 109 71.0365 109 94.4584 93.5748 114 73.0692 118.519L70.0056 118.852 70.0056 66.9857ZM24.9933 47.0824 34.04 52.322 30.2376 60.674C29.1839 64.2516 28.6162 68.0553 28.6162 71.999 28.6162 74.2995 28.8093 76.5524 29.1795 78.7405L30.2191 82.8046 32.5811 79.1886C33.6096 78.1732 34.8466 77.4083 36.258 76.9789 41.9035 75.2614 48.2011 79.5613 50.3239 86.5829 52.4466 93.6047 49.5909 100.689 43.9454 102.407L43.6319 102.422 45.9805 104.569C49.4506 106.796 53.3048 108.421 57.4134 109.309L59.3583 109.516 59.3583 119 54.9309 118.519C34.4252 114 19 94.4584 19 71.0365 19 62.6716 20.9676 54.8017 24.4313 47.9341ZM49.7086 9 49.0124 12.4594C49.0124 21.1408 56.0279 28.1785 64.682 28.1785 73.3361 28.1785 80.3516 21.1408 80.3516 12.4594L79.6554 9.00021 82.1308 10.6744C86.5964 15.1542 89.3584 21.3428 89.3584 28.1785L89.0941 30.8081 89.16 30.8465C92.1526 33.0241 94.8888 35.5791 97.3099 38.4481L97.4962 38.7304 64.682 57.7356 30.9546 38.2015 38.84 30.8465 40.1939 30.0551 40.0053 28.1785C40.0053 21.3428 42.7674 15.1542 47.2329 10.6744Z"/>
</svg>
