<?xml version="1.0" encoding="utf-8"?>
<svg version="1.1" id="Layer_1" xmlns="http://www.w3.org/2000/svg" xmlns:xlink="http://www.w3.org/1999/xlink" x="0px" y="0px"
	 viewBox="0 0 128 128" enable-background="new 0 0 128 128" xml:space="preserve">
<path fill-rule="evenodd" clip-rule="evenodd" fill="#333333" d="M112 87.7656 109.419 92.5146C100.241 106.081 84.6985 115 67.0703 115 52.9676 115 40.2001 109.292 30.9581 100.062L25.2633 93.1697 27.3544 91.9294C42.4071 84.8343 55.7774 104.962 73.8981 91.5304L73.795 91.372 78.5581 94.074C82.2942 95.7257 86.4019 96.6389 90.7137 96.6389 97.1813 96.6389 103.19 94.584 108.174 91.0647ZM67.0703 13C84.6985 13 100.241 21.9193 109.419 35.4854L112 40.2348 108.174 36.9355C103.19 33.4162 97.1813 31.3613 90.7137 31.3613 73.4666 31.3613 59.4852 45.9741 59.4852 64.0001 59.4852 68.5066 60.359 72.7998 61.9393 76.7047L64.6476 81.9196 63.912 82.1756C49.4267 85.3164 39.549 61.4623 19.3928 67.6642L16.4883 68.837 16 64C16 35.8335 38.865 13 67.0703 13Z"/>
</svg>
