<?xml version="1.0" encoding="utf-8"?>
<svg version="1.1" id="Layer_1" xmlns="http://www.w3.org/2000/svg" xmlns:xlink="http://www.w3.org/1999/xlink" x="0px" y="0px"
	 viewBox="0 0 128 128" enable-background="new 0 0 128 128" xml:space="preserve">
<path fill-rule="evenodd" clip-rule="evenodd" fill="#333333" d="M25.5526 38.9783C21.185 41.136 16.5513 49.5667 15.4428 53.6598 16.8173 54.6608 23.6027 55.8262 25.5526 53.6598 26.9451 52.1126 28.3461 45.0733 25.5526 38.9783ZM77.5976 10 85.3865 12.4385C105.727 21.1155 120 41.4289 120 65.1045 120 76.9423 116.432 87.9395 110.321 97.062L105.072 103.478 106.936 99.6718C109.185 93.9802 110.094 87.7282 109.394 81.3676 108.7 75.055 106.481 69.1755 103.086 64.108L101.6 62.2239 102.441 70.7488C102.441 97.3972 81.2995 119 55.2204 119L49.8461 118.446 50.6716 118.374C66.8549 115.502 79.0286 103.083 79.0286 88.1984 79.0286 71.1871 63.1283 57.3968 43.5143 57.3968L24.6254 72.7388C17.8179 72.6625 13.4217 72.7335 10.6509 71.3536 7.87996 69.9738 8.70335 69.1621 8 64.4596 8 38.142 25.1439 16.1845 47.9344 11.1063L54.1259 10.4267 50.35 14.0517C48.2025 16.5997 46.1684 19.6382 44.2924 23.091L43.862 24.0622 45.7039 23.478C48.7779 22.8352 51.9606 22.4977 55.2204 22.4977 68.26 22.4977 80.0651 27.8984 88.6103 36.6302L92.5374 41.4938C92.5337 41.3794 92.5299 41.2652 92.5263 41.1508 91.5837 32.5607 88.6786 24.3097 83.9693 17.3759Z"/>
</svg>
