<?xml version="1.0" encoding="utf-8"?>
<svg version="1.1" id="Layer_1" xmlns="http://www.w3.org/2000/svg" xmlns:xlink="http://www.w3.org/1999/xlink" x="0px" y="0px"
	 viewBox="0 0 128 128" enable-background="new 0 0 128 128" xml:space="preserve">
<path fill-rule="evenodd" clip-rule="evenodd" fill="#333333" d="M43.1134 82.071 43.1628 82.3191 42.898 82.6767C42.4148 83.6887 42.1192 84.8135 42.0592 86.0071 41.9204 88.7679 41.9006 91.5348 42 94.3081 44.7095 94.6905 47.4249 94.952 50.1464 95.0928 51.323 95.1537 52.4561 94.9698 53.4976 94.5851L54.1737 94.1718 54.5507 94.4296 53.282 97.5503C50.0329 103.895 45.9641 107.747 42.5367 109.378 40.4973 110.393 39.9757 110.789 37.1413 110.998 31.0947 111.121 26.2915 106.248 26.4129 100.114 26.693 96.5951 26.5371 97.5497 27.8507 94.4794 29.4578 91.0025 33.2553 86.875 39.5096 83.579ZM84.9025 81.9904 88.699 83.579C94.9535 86.875 98.7509 91.0025 100.358 94.4794 101.672 97.5497 101.516 96.5951 101.796 100.114 101.917 106.248 97.1139 111.121 91.0674 110.998 88.233 110.789 87.7114 110.393 85.6719 109.378 82.2446 107.747 78.1758 103.895 74.9268 97.5503L73.6126 94.3179 79.927 89.9989C81.9651 87.9314 83.6144 85.4696 84.7542 82.7359ZM63.9999 59.7681C71.241 59.7681 77.1109 65.7229 77.1109 73.0686 77.1109 80.4143 71.241 86.3691 63.9999 86.3691 56.7589 86.3691 50.889 80.4143 50.889 73.0686 50.889 65.7229 56.7589 59.7681 63.9999 59.7681ZM104.23 17.0002C114.596 17.0002 123 25.5254 123 36.0417 122.745 40.9661 122.093 41.86 120.447 45.3737 116.856 53.4139 106.346 63.38 87.6368 68.8374L85.6244 69.3201 85.5925 69.1599 86.4491 62.6499C87.1352 58.97 88.0211 55.3061 89.107 51.658 85.3857 52.1784 81.6801 52.496 77.9901 52.6109L71.7312 52.4613 71.6726 52.4428 74.1818 44.9632C79.7705 30.7094 87.9586 22.4301 94.7521 19.3076 99.8978 17.1279 98.2893 17.3663 104.23 17.0002ZM23.7702 17C29.7107 17.3661 28.1022 17.1277 33.2479 19.3074 40.0414 22.4299 48.2296 30.7092 53.8183 44.963L56.3275 52.4428 55.2325 52.7875C49.8429 55.1001 45.5254 59.4801 43.2457 64.9475L42.3756 69.3199 40.3632 68.8372C21.6543 63.3798 11.1442 53.4137 7.55316 45.3735 5.90743 41.8598 5.25507 40.9659 5 36.0415 5.0001 25.5252 13.4038 17 23.7702 17Z"/>
</svg>
