<?xml version="1.0" encoding="utf-8"?>
<svg version="1.1" id="Layer_1" xmlns="http://www.w3.org/2000/svg" xmlns:xlink="http://www.w3.org/1999/xlink" x="0px" y="0px"
	 viewBox="0 0 128 128" enable-background="new 0 0 128 128" xml:space="preserve">
<path fill-rule="evenodd" clip-rule="evenodd" fill="#333333" d="M35.8322 41.9161C50.3462 42.654 48.8569 58.6485 44.2266 65.9709 58.184 66.8655 70.6757 78.2302 72.6077 85.8509 76.1387 86.3147 76.2053 76.3416 74.6064 69.3505L98.5904 66.3685C103.187 69.2843 104.82 82.3718 102.188 86.8448 99.5566 91.3177 87.9975 91.9475 82.8009 93.2066L87.9975 110.701C70.4092 116.599 56.8182 116.135 40.0294 111.099L44.6263 92.2126C41.9282 93.074 27.5045 90.2577 23.0408 82.6701 19.7763 75.2814 14.5573 40.8344 35.8322 41.9161ZM43.6896 13.0028C48.2324 13.0732 53.1875 14.4483 58.2174 17.4634 118.597-2.21788 119.217 70.543 85.859 54.4402 82.5279 61.2657 68.0043 62.5248 62.0749 56.4282 60.0562 35.5542 40.0495 24.819 23.0408 38.5362 20.1427 24.322 30.0611 12.7915 43.6896 13.0028Z"/>
</svg>
