<?xml version="1.0" encoding="utf-8"?>
<svg version="1.1" id="Layer_1" xmlns="http://www.w3.org/2000/svg" xmlns:xlink="http://www.w3.org/1999/xlink" x="0px" y="0px"
	 viewBox="0 0 128 128" enable-background="new 0 0 128 128" xml:space="preserve">
<path fill-rule="evenodd" clip-rule="evenodd" fill="#333333" d="M96.9,39.7c7.3,25.1-1.5,27.3-1.3,36.3c0.2,8.9,10,6.1,10.4,16.8
	c0.2,5.7-5.2,10.4-12,14.5l-7.1,3.7l0.2-0.9c0-6.1-5-11.1-11.1-11.1c-4.6,0-8.5,2.8-10.2,6.8l-0.2,1.2l-0.2-0.5
	c-1.8-6-2.2-13.5-0.2-20C69,73.4,95.5,59,96.9,39.7z M57.3,9c8.4,4.7,22.7,11.8,24.5,23.9c5.1,33.7-37.9,27.6-16.2,86.1
	c-17.4-7.5-41.8-20.6-43.5-37.8C19,50.4,90,33.6,57.3,9z"/>
</svg>
