<?xml version="1.0" encoding="utf-8"?>
<svg version="1.1" id="Layer_1" xmlns="http://www.w3.org/2000/svg" xmlns:xlink="http://www.w3.org/1999/xlink" x="0px" y="0px"
	 viewBox="0 0 128 128" enable-background="new 0 0 128 128" xml:space="preserve" fill="#333333">
<path _ngcontent-vce-c67="" d="M21.6976 46.5705 21 52.393C21 72.3752 40.2518 88.5741 64 88.5741 87.7482 88.5741 107 72.3752 107 52.393L106.302 46.5705 94.4389 49.5498C85.0833 51.3806 74.7972 52.393 64 52.393 53.2028 52.393 42.9167 51.3806 33.5611 49.5498ZM64 11C93.2711 11 117 29.5323 117 52.3929 117 69.5383 103.652 84.2491 84.63 90.5329L77.691 92.2152 82.4125 93.185C87.8716 94.6651 92.2599 96.7462 92.4001 99.3978 92.9668 110.116 75.9334 114.334 60.2001 117 65.8334 113.024 74.2333 112.294 71.4 107.416 66.9667 101.536 50.7334 112.891 39.4001 103.57 35.796 100.504 42.1528 95.9193 50.5115 93.0844L52.0751 92.6433 43.3701 90.5329C24.3475 84.2491 11 69.5383 11 52.3929 11 29.5323 34.7289 11 64 11Z"></path>
</svg>
