<?xml version="1.0" encoding="utf-8"?>
<svg version="1.1" id="Layer_1" xmlns="http://www.w3.org/2000/svg" xmlns:xlink="http://www.w3.org/1999/xlink" x="0px" y="0px"
	 viewBox="0 0 128 128" enable-background="new 0 0 128 128" xml:space="preserve">
<path fill-rule="evenodd" clip-rule="evenodd" fill="#333333" d="M104.444 12C112.484 33.5172 110.833 68.5491 91.7841 86.7125 61.8161 115.288 51.7103 92.9678 36.5613 99.2644 29.9202 102.025 30.8463 107.831 31.677 116 30.78 114.705 29.7008 112.851 28.5556 110.558 26.9708 107.265 26.582 104.77 26.7914 101.875 31.4368 45.1903 74.5868 60.4636 95.1334 29.3333 69.5405 56.4167 23.2717 38.3222 21.7057 90.6211 21.7188 91.118 21.7319 91.6148 21.7451 92.1117L19.5962 81.293C17.6043 65.8887 20.1212 49.2029 34.5677 38.8966 67.516 15.3907 94.4756 36.1073 104.444 12Z"/>
</svg>
