<?xml version="1.0" encoding="utf-8"?>
<svg version="1.1" id="Layer_1" xmlns="http://www.w3.org/2000/svg" xmlns:xlink="http://www.w3.org/1999/xlink" x="0px" y="0px"
	 viewBox="0 0 128 128" enable-background="new 0 0 128 128" xml:space="preserve">
<path fill-rule="evenodd" clip-rule="evenodd" fill="#333333" d="M48.0258 54.1734C66.0637 53.4944 72.8109 70.2679 100.862 69.561L104.638 69.2776 122 106 48.5546 106 48.5546 105.251C48.5546 98.1399 42.7747 92.375 35.6447 92.375 28.5148 92.375 22.7349 98.1399 22.7349 105.251L22.7349 106 6 106 35.254 57.1733 37.9151 56.129C41.6996 54.8846 45.0195 54.2865 48.0258 54.1734ZM62.0602 22C63.4313 22 64.7375 22.2618 65.9256 22.7355L69.0116 24.6963 72.0977 22.7355C73.2857 22.2618 74.592 22 75.9631 22 78.7054 22 81.188 23.0476 82.9851 24.7411L84.7452 27.2015 100.154 59.7925 98.7566 60.1102C73.6844 63.7707 71.0902 37.0752 49.1074 41.0135L44.1227 42.3709 53.2113 27.2015 53.278 27.2015 55.0381 24.7411C56.8352 23.0476 59.3179 22 62.0602 22Z"/>
</svg>
