<?xml version="1.0" encoding="utf-8"?>
<svg version="1.1" id="Layer_1" xmlns="http://www.w3.org/2000/svg" xmlns:xlink="http://www.w3.org/1999/xlink" x="0px" y="0px"
	 viewBox="0 0 128 128" enable-background="new 0 0 128 128" xml:space="preserve">
<path fill-rule="evenodd" clip-rule="evenodd" fill="#333333" d="M105.497 34.5241 106.29 35.4854C111.789 43.6251 115 53.4375 115 64 115 92.1665 92.1665 115 64 115 53.4376 115 43.6251 111.789 35.4854 106.29L34.5241 105.497 48.2351 91.7857 51.511 93.5638C55.3496 95.1873 59.57 96.0852 64 96.0852 81.7202 96.0852 96.0852 81.7202 96.0852 64 96.0852 59.5699 95.1873 55.3496 93.5638 51.511L91.7857 48.2351ZM64 13C74.5625 13 84.3749 16.211 92.5146 21.71L93.476 22.5032 79.7649 36.2143 76.489 34.4363C72.6504 32.8127 68.4301 31.9148 64 31.9148 46.2798 31.9148 31.9148 46.2798 31.9148 64 31.9148 68.4301 32.8127 72.6504 34.4363 76.489L36.2143 79.7649 22.5032 93.476 21.71 92.5146C16.211 84.3749 13 74.5625 13 64 13 35.8335 35.8335 13 64 13Z"/>
</svg>
