<?xml version="1.0" encoding="utf-8"?>
<svg version="1.1" id="Layer_1" xmlns="http://www.w3.org/2000/svg" xmlns:xlink="http://www.w3.org/1999/xlink" x="0px" y="0px"
	 viewBox="0 0 128 128" enable-background="new 0 0 128 128" xml:space="preserve">
<path fill-rule="evenodd" clip-rule="evenodd" fill="#333333" d="M44.0395 107.017C48.1456 107.017 51.4742 110.371 51.4742 114.509 51.4742 118.646 48.1456 122 44.0395 122 39.9335 122 36.6048 118.646 36.6048 114.509 36.6048 110.371 39.9335 107.017 44.0395 107.017ZM64.0001 35.7044C71.516 35.7044 77.6088 41.1241 77.6088 47.8096 77.6088 54.4951 71.516 59.9148 64.0001 59.9148 56.4842 59.9148 50.3914 54.4951 50.3914 47.8096 50.3914 41.1241 56.4842 35.7044 64.0001 35.7044ZM63.9998 6 63.9998 21.3406 57.8668 21.8784C43.9994 24.3465 33.5676 35.0185 33.5676 47.8096 33.5676 60.6008 43.9994 71.2728 57.8668 73.7408L63.9998 74.2786 63.9998 76.2762 64.0002 76.2762 64.0002 74.2786 70.1332 73.7408C84.0006 71.2728 94.4324 60.6008 94.4324 47.8096 94.4324 35.0185 84.0006 24.3465 70.1332 21.8784L64.0002 21.3406 64.0002 6 73.2702 6.76246C94.2314 10.2625 109.999 25.3963 109.999 43.5353 110.08 52.0934 103.556 68.8933 91.8146 80.5373L89.7377 110.137C89.7377 113.502 87.0304 116.229 83.6908 116.229L83.6909 116.229C80.3514 116.229 77.644 113.501 77.644 110.136L77.644 90.1855 72.0928 91.8286 72.0928 101.746C72.0928 105.111 69.3855 107.839 66.0459 107.839L66.0461 107.839C62.7065 107.839 59.9992 105.111 59.9992 101.746L59.9992 92.7594 58.7338 92.6653C55.5282 92.1765 52.4857 91.246 49.6157 89.9663L49.4915 89.8927 49.4915 96.153C49.4915 99.5179 46.7842 102.246 43.4446 102.246L43.4448 102.246C40.1052 102.246 37.3979 99.5178 37.3979 96.1529L34.5437 78.8402C23.8372 67.312 17.924 51.6858 18.0007 43.5353 18.0007 25.3963 33.7686 10.2625 54.7298 6.76246Z"/>
</svg>
