<?xml version="1.0" encoding="utf-8"?>
<svg version="1.1" id="Layer_1" xmlns="http://www.w3.org/2000/svg" xmlns:xlink="http://www.w3.org/1999/xlink" x="0px" y="0px"
	 viewBox="0 0 128 128" enable-background="new 0 0 128 128" xml:space="preserve">
<path fill-rule="evenodd" clip-rule="evenodd" fill="#333333" d="M30.7145 34.6637 29.6799 36.1928C25.2822 44.1306 22.7143 53.6996 22.7143 64 22.7143 74.3004 25.2822 83.8695 29.6799 91.8072L30.7145 93.3363 27.9966 92.5367C11.1055 86.3523 0 75.879 0 64 0 52.121 11.1055 41.6477 27.9966 35.4633ZM96.2853 34.6636 99.0035 35.4633C115.895 41.6477 127 52.121 127 64 127 75.879 115.895 86.3523 99.0035 92.5367L96.2853 93.3364 97.32 91.8072C101.718 83.8695 104.285 74.3004 104.285 64 104.285 53.6996 101.718 44.1306 97.32 36.1928ZM63.5 34.6636C54.7732 34.6636 47.6987 47.798 47.6987 64 47.6987 80.202 54.7732 93.3364 63.5 93.3364 67.8634 93.3364 71.8138 90.0528 74.6732 84.7439L77.2228 77.7231 74.5228 78.2666C66.6205 78.2666 60.2145 71.8791 60.2145 63.9998 60.2145 56.1205 66.6205 49.733 74.5228 49.733L77.2227 50.2765 74.6732 43.2561C71.8138 37.9473 67.8634 34.6636 63.5 34.6636ZM63.5 17C78.3687 17 90.4222 38.0426 90.4222 64 90.4222 89.9574 78.3687 111 63.5 111 48.6313 111 36.5778 89.9574 36.5778 64 36.5778 38.0426 48.6313 17 63.5 17Z"/>
</svg>
