<?xml version="1.0" encoding="utf-8"?>
<svg version="1.1" xmlns="http://www.w3.org/2000/svg" xmlns:xlink="http://www.w3.org/1999/xlink" x="0px" y="0px"
	 viewBox="0 0 128 128" enable-background="new 0 0 128 128" xml:space="preserve">
	<path d="M126.9,36.3c-0.2-0.3-0.5-0.6-0.9-0.6H93.7L71.8,4.4C71.7,4.2,71.4,4,71.1,4c0,0,0,0,0,0c-0.3,0-0.6,0.1-0.8,0.4L45.5,34.5
		c0,0-43.5-0.9-43.5-0.9c-0.4,0-0.7,0.2-0.9,0.5c-0.2,0.3-0.1,0.7,0.1,1.1l31.3,42.5l-20.1,44.8c-0.2,0.4-0.1,0.8,0.2,1.1
		c0.2,0.2,0.4,0.3,0.7,0.3c0.1,0,0.3,0,0.4-0.1l48-21.3c-0.2-1.5-0.4-3.2-0.7-4.9c-1.9-14.5-3.7-18.4-25.4-21.4
		c-1.9-0.3-2.6-0.4-2.6-1.5c0-1.1,0.9-1.4,2.6-1.5C57,72,61.7,62,63.9,39.7c0.2-1.9,0.1-2.5,1.6-2.5s1.4,0.6,1.6,2.5
		C69.2,62,73.8,72,95.2,73.2c1.7,0.1,2.6,0.4,2.6,1.5c0,1.1-0.7,1.2-2.6,1.5c-21.8,3-23.5,7-25.4,21.4c-0.1,0.5-0.1,1-0.2,1.5
		l8.5-3.8l29.4,19.3c0.2,0.1,0.4,0.2,0.5,0.2c0.2,0,0.4-0.1,0.6-0.2c0.3-0.2,0.5-0.6,0.4-1l-9.8-41.9l27.5-34.3
		C127,37,127.1,36.6,126.9,36.3z M36.2,96.3c2,0,3.6,1.6,3.6,3.6s-1.6,3.6-3.6,3.6s-3.6-1.6-3.6-3.6S34.2,96.3,36.2,96.3z M32.6,60
		c-2,0-3.6-1.6-3.6-3.6c0-2,1.6-3.6,3.6-3.6s3.6,1.6,3.6,3.6C36.3,58.4,34.6,60,32.6,60z M52.7,43.8c-1.7,0-3.1-1.4-3.1-3.1
		c0-1.7,1.4-3.1,3.1-3.1c1.7,0,3.1,1.4,3.1,3.1C55.8,42.4,54.4,43.8,52.7,43.8z M92.4,55.4c-2,0-3.6-1.6-3.6-3.6s1.6-3.6,3.6-3.6
		c2,0,3.6,1.6,3.6,3.6S94.4,55.4,92.4,55.4z"/>
</svg>
