<?xml version="1.0" encoding="utf-8"?>
<svg version="1.1" id="Layer_1" xmlns="http://www.w3.org/2000/svg" xmlns:xlink="http://www.w3.org/1999/xlink" x="0px" y="0px"
	 viewBox="0 0 128 128" enable-background="new 0 0 128 128" xml:space="preserve"  fill-rule="evenodd" clip-rule="evenodd" fill="#333333" >
	<path _ngcontent-xrn-c67="" d="M45.1449 77.6319 20.3995 91.9585 62.0865 115.763 62.0865 89.3609ZM73.6246 72.288 65.9134 86.4425 65.9134 115.763 107.601 91.9585ZM18.5319 40.3916 18.5319 88.6084 42.9872 74.4498 35.1117 49.9906ZM109.468 40.3916 94.1495 49.2604 75.648 69.028 109.468 88.6086ZM62.0865 13.3716 20.5162 37.1092 36.9767 46.639 62.0865 34.4931ZM65.9134 13.3714 65.9134 34.0181 94.7234 44.4968 107.484 37.1091ZM64.0001 7 114 35.5513 114 93.4488 64.0001 122 14 93.4488 14 35.5513Z"></path>
</svg>
