<?xml version="1.0" encoding="utf-8"?>
<svg version="1.1" xmlns="http://www.w3.org/2000/svg" xmlns:xlink="http://www.w3.org/1999/xlink" x="0px" y="0px"
	 viewBox="0 0 128 128" enable-background="new 0 0 128 128" xml:space="preserve" fill="#333333">
<path  d="M75.2131 92.1994 100.402 99.2483 64.4911 115 33.4058 114.121 28.037 104.74ZM112.961 45.8068 125 60.0657 107.094 93.671 100.577 73.3905ZM17.5283 43.054 36.9534 70.4715 24.3765 98.345 3 60.9961ZM70.2937 22.0305 82.2072 47.2 105.736 46.6078 93.8231 72.6657 100.971 93.9856 72.9744 84.5102 32.4682 96.0584 47.0623 69.1124 28.5963 43.3505 53.9126 46.6078ZM94.6106 13.5852 109.257 40.7459 89.5474 41.4195 74.1969 14.451ZM36.1267 13 66.7579 14.4705 48.3381 39.946 22.6619 35.9743Z"></path>
</svg>
