<?xml version="1.0" encoding="utf-8"?>
<svg version="1.1" id="Layer_1" xmlns="http://www.w3.org/2000/svg" xmlns:xlink="http://www.w3.org/1999/xlink" x="0px" y="0px"
	 viewBox="0 0 512 512" enable-background="new 0 0 512 512" xml:space="preserve">
<path d="M162.619,189.486c2.78-7.459,3.093-26.701,0.236-33.017c-0.597-1.322-1.907-3.094-4.746-4.032
	c-7.195-2.376-20.471,2.144-27.599,6.113c-3.23,1.798-6.454,4.371-9.867,7.096c-6.213,4.96-12.64,10.089-19.817,11.294
	c-1.842,0.307-3.071,2.045-2.763,3.878c0.308,1.834,2.045,3.071,3.879,2.762c8.904-1.496,16.341-7.434,22.903-12.672
	c3.188-2.545,6.199-4.949,8.94-6.475c7.499-4.172,18.293-6.897,22.211-5.602c0.436,0.144,0.677,0.311,0.723,0.412
	c1.953,4.32,1.632,19.398,0.204,25.897c-2.529-0.101-5.338,0.593-7.128,1.04c-4.58,1.144-10.499,3.18-16.667,5.735
	c-6.168,2.555-11.793,5.3-15.841,7.73c-1.476,0.886-3.734,2.246-5.425,3.934c-20.635-15.087-40.737-59.08-46.272-71.862
	c4.597-1.346,12.126-3.942,16.825-7.614c4.606,1.997,9.249,12.508,14.555,24.525l0.956,2.162c0.741,1.674,2.686,2.46,4.372,1.762
	c0.013-0.005,0.025-0.01,0.038-0.016c1.695-0.726,2.495-2.667,1.79-4.37c-0.213-0.612-0.392-3.009-0.537-4.934
	c-0.476-6.339-1.239-16.5-5.511-26.058c5.831-2.545,16.991-7.704,25.196-13.251c7.146,14.709,11.426,36.933,11.471,37.173
	c0.347,1.827,2.11,3.026,3.937,2.679c1.824-0.349,3.026-2.109,2.679-3.936c-0.186-0.979-4.161-21.616-11.16-36.995
	c7.35-4.392,26.601-13.481,31.539-12.372c1.735,1.627,0.945,12.201,0.52,17.899c-0.485,6.498-0.987,13.218-0.106,17.951
	c0.456,2.454,1.768,4.457,3.792,5.793c5.949,3.924,16.888,1.474,28.468-1.121c5.121-1.147,9.957-2.231,13.725-2.567
	c9.992-0.892,22.195,3.588,24.363,7.711c0.305,0.578,0.499,1.192-0.447,2.335c-2.259,2.727-3.559,2.402-8.702,0.576
	c-4.294-1.524-10.174-3.611-18.237-2.569c-14.694,1.897-24.318,10.774-31.341,17.256c-1.135,1.047-2.208,2.038-3.23,2.929
	c-1.401,1.222-1.548,3.349-0.325,4.751c1.221,1.401,3.352,1.549,4.75,0.325c1.067-0.93,2.187-1.963,3.371-3.056
	c6.712-6.193,15.067-13.902,27.637-15.526c6.465-0.835,11.064,0.798,15.122,2.237c3.594,1.276,7.529,2.672,11.423,1.059
	c1.588-0.658,3.17-1.816,4.718-3.686c2.507-3.027,2.94-6.495,1.221-9.765c-4.037-7.678-19.655-12.291-30.922-11.285
	c-4.21,0.376-9.255,1.506-14.598,2.704c-8.325,1.865-19.726,4.419-23.287,2.07c-0.501-0.33-0.756-0.737-0.88-1.403
	c-0.72-3.872-0.252-10.149,0.201-16.218c0.927-12.411,1.727-23.13-5.569-24.926c-7.935-1.953-28.049,8.148-36.284,12.958
	c-0.495-0.655-1.202-1.123-2.016-1.285c-0.959-0.19-1.95,0.044-2.724,0.645c-9.608,7.471-28.115,15.237-30.194,16.098
	c-0.884,0.366-1.571,1.091-1.888,1.994c-0.317,0.903-0.236,1.898,0.225,2.737c1.959,3.568,3.281,7.404,4.192,11.144
	c-3.789-6.634-7.644-10.66-12.877-11.163c-0.989-0.095-1.971,0.251-2.677,0.946c-4.073,3.988-15.066,7.249-18.959,8.169
	c-0.956,0.226-1.767,0.858-2.217,1.732c-0.451,0.873-0.498,1.9-0.129,2.811c1.053,2.597,25.838,63.115,52.548,79.994L228.513,465.43
	c1.095,2.542,4.133,4.679,17.546-0.876c13.413-5.556,14.05-9.215,13.026-11.787L162.619,189.486z M234.027,461.312L130.709,238.5
	c7.446-0.571,17.369-4.012,21.324-5.65c1.718-0.711,2.534-2.681,1.822-4.399c-0.712-1.718-2.682-2.534-4.399-1.822
	c-9.28,3.844-18.745,5.62-21.824,5.236l-10.947-23.608c1.958-1.845,8.399-5.719,19.021-10.118c10.621-4.4,17.915-6.215,20.604-6.295
	l95.965,261.911C249.091,456.349,238.113,460.897,234.027,461.312z"/>
<path d="M412.615,209.167l9.532-23.012c0.024-0.058,0.032-0.117,0.053-0.175c0.038-0.109,0.072-0.217,0.099-0.331
	c0.029-0.119,0.048-0.237,0.063-0.356c0.007-0.058,0.026-0.112,0.031-0.171l5.363-70.714c0.111-1.451-0.724-2.809-2.068-3.366
	c-1.345-0.557-2.895-0.187-3.842,0.917l-46.21,53.795c-0.039,0.045-0.064,0.096-0.1,0.143c-0.074,0.095-0.143,0.192-0.207,0.297
	c-0.061,0.1-0.114,0.201-0.164,0.304c-0.027,0.056-0.063,0.104-0.087,0.161l-9.532,23.012l-6.166,14.886l-74.612,180.13
	l-5.76,13.906l-9.583,23.135c-3.238,7.816,7.766,15.637,19.143,20.35c11.378,4.713,24.688,6.963,27.926-0.853l9.583-23.135
	l5.76-13.906l74.612-180.13L412.615,209.167z M420.265,124.132l-4.324,57.021c-7.38-2.122-26.219-9.926-32.938-13.643
	L420.265,124.132z M379.608,173.318c0.919,0.503,1.917,1.002,2.944,1.516c3.664,1.834,8.668,4.081,14.09,6.327
	c5.422,2.246,10.549,4.195,14.437,5.489c1.09,0.363,2.148,0.715,3.154,1.01l-6.848,16.532c-7.014-2.069-28.203-10.846-34.625-14.342
	L379.608,173.318z M310.272,438.647c-0.616,1.486-7.925,1.849-19.127-2.791c-11.202-4.64-16.114-10.065-15.499-11.551l6.881-16.612
	c4.604,4.219,12.113,7.696,16.366,9.457c4.253,1.762,12.021,4.613,18.26,4.885L310.272,438.647z M319.997,415.168
	c-1.637,0.605-8.281,0.004-18.527-4.24c-10.246-4.244-15.369-8.517-16.099-10.102l2.907-7.018c4.601,4.226,12.11,7.703,16.363,9.465
	c4.253,1.762,12.022,4.612,18.263,4.878L319.997,415.168z M325.753,401.271c-1.625,0.616-8.272,0.03-18.535-4.221
	c-10.263-4.251-15.377-8.537-16.091-10.121l72.88-175.948c0.917,0.472,1.932,0.959,3.021,1.481
	c3.674,1.762,8.674,3.965,14.079,6.204c5.405,2.239,10.498,4.216,14.342,5.569c1.139,0.401,2.201,0.774,3.183,1.089L325.753,401.271
	z M401.221,219.076c-7.018-2.074-28.197-10.846-34.626-14.342l3.576-8.634c0.917,0.473,1.932,0.96,3.019,1.482
	c3.674,1.763,8.674,3.967,14.079,6.206c5.405,2.239,10.499,4.216,14.344,5.568c1.138,0.4,2.201,0.773,3.183,1.087L401.221,219.076z"
	/>
<path d="M247.844,275.924c-13.947,5.777-20.594,21.824-14.817,35.771c4.363,10.533,14.581,16.901,25.329,16.901
	c3.485,0,7.027-0.67,10.443-2.085c6.756-2.798,12.018-8.06,14.816-14.816c2.799-6.756,2.799-14.198,0-20.954
	C277.837,276.794,261.789,270.147,247.844,275.924z M278.282,292.95c2.209,5.332,2.209,11.204,0,16.536
	c-2.209,5.332-6.361,9.484-11.693,11.693c-11.001,4.557-23.67-0.685-28.23-11.693c-4.559-11.007,0.687-23.671,11.693-28.23
	c2.695-1.116,5.489-1.645,8.24-1.645C266.774,279.612,274.839,284.639,278.282,292.95z"/>
<path d="M430.092,331.745c-5.777-13.946-21.822-20.596-35.771-14.816c-13.947,5.777-20.594,21.824-14.817,35.771
	c4.363,10.532,14.581,16.901,25.33,16.901c3.485,0,7.026-0.67,10.441-2.085c6.757-2.798,12.019-8.06,14.818-14.817
	C432.89,345.943,432.891,338.501,430.092,331.745L430.092,331.745z M413.065,362.183c-11.006,4.558-23.67-0.687-28.229-11.693
	c-2.209-5.332-2.209-11.204,0-16.536c2.209-5.332,6.361-9.484,11.694-11.693c2.695-1.117,5.489-1.645,8.24-1.645
	c8.481,0,16.546,5.027,19.989,13.337C429.318,344.961,424.072,357.625,413.065,362.183z"/>
<path d="M301.623,260.548c2.26,0,4.557-0.435,6.773-1.352c9.045-3.747,13.357-14.154,9.61-23.201
	c-3.747-9.045-14.153-13.361-23.202-9.611c-9.046,3.747-13.357,14.155-9.61,23.202C288.024,256.418,294.652,260.548,301.623,260.548
	z M297.014,231.718c1.495-0.619,3.044-0.912,4.571-0.912c4.705,0,9.179,2.788,11.089,7.399c2.528,6.106-0.381,13.13-6.487,15.66
	c-6.104,2.529-13.13-0.381-15.66-6.486C287.999,241.272,290.908,234.247,297.014,231.718z"/>
<path d="M120.691,351.047c-9.045,3.748-13.356,14.155-9.61,23.202c2.829,6.831,9.457,10.962,16.429,10.962
	c2.26,0,4.557-0.435,6.772-1.352c9.046-3.748,13.358-14.155,9.611-23.202C140.147,351.612,129.74,347.301,120.691,351.047z
	 M132.074,378.527c-6.107,2.528-13.13-0.381-15.66-6.487c-2.529-6.105,0.381-13.13,6.486-15.66c1.495-0.619,3.045-0.912,4.571-0.912
	c4.705,0,9.179,2.788,11.089,7.399C141.089,368.972,138.179,375.998,132.074,378.527z"/>
<path d="M427.883,257.613c-3.042-1.26-6.391-1.26-9.43,0c-3.041,1.259-5.41,3.627-6.669,6.668c-1.259,3.041-1.259,6.39,0.001,9.43
	c1.259,3.041,3.627,5.409,6.668,6.669c1.52,0.629,3.117,0.944,4.715,0.944c1.597,0,3.194-0.315,4.715-0.945
	c3.04-1.259,5.409-3.627,6.668-6.668c1.26-3.041,1.26-6.39,0-9.431C433.292,261.241,430.923,258.873,427.883,257.613z
	 M429.218,271.503c-0.67,1.616-1.928,2.875-3.545,3.544c-1.616,0.669-3.396,0.669-5.012,0c-1.616-0.669-2.874-1.928-3.544-3.545
	c-0.67-1.616-0.67-3.396,0-5.012c0.669-1.616,1.928-2.875,3.545-3.544c0.808-0.334,1.656-0.502,2.506-0.502s1.699,0.167,2.507,0.502
	c1.616,0.669,2.874,1.928,3.544,3.544v0C429.888,268.107,429.888,269.887,429.218,271.503z"/>
<path d="M259.429,103.468c1.568,0,3.162-0.302,4.699-0.938c6.276-2.6,9.267-9.821,6.668-16.098v0
	c-2.601-6.276-9.822-9.268-16.099-6.668c-6.277,2.6-9.268,9.822-6.668,16.098C249.993,100.602,254.591,103.468,259.429,103.468z
	 M253.362,88.641c0.67-1.616,1.928-2.875,3.545-3.545c0.816-0.338,1.664-0.498,2.497-0.498c2.571,0,5.016,1.523,6.06,4.043
	c1.381,3.336-0.209,7.175-3.544,8.557c-3.34,1.382-7.175-0.209-8.558-3.544C252.693,92.038,252.693,90.257,253.362,88.641z"/>
<path d="M114.921,299.395c3.041-1.259,5.409-3.627,6.669-6.668c1.259-3.04,1.259-6.389,0-9.43c-2.6-6.277-9.822-9.268-16.098-6.668
	c-6.277,2.6-9.268,9.822-6.668,16.098c1.964,4.74,6.561,7.606,11.399,7.606C111.79,300.333,113.384,300.031,114.921,299.395z
	 M107.7,294.062c-1.616-0.669-2.875-1.928-3.544-3.544c-1.382-3.337,0.208-7.175,3.544-8.557c0.808-0.334,1.657-0.502,2.506-0.502
	c0.849,0,1.698,0.167,2.506,0.502c1.616,0.669,2.875,1.928,3.544,3.544c1.382,3.337-0.208,7.175-3.544,8.557
	C111.096,294.731,109.316,294.731,107.7,294.062z"/>
<circle cx="318.981" cy="175.155" r="9.598"/>
<ellipse transform="matrix(0.9931 -0.1177 0.1177 0.9931 -27.017 11.0835)" cx="80.355" cy="234.344" rx="9.598" ry="9.598"/>
<ellipse transform="matrix(0.7702 -0.6378 0.6378 0.7702 -95.6052 187.273)" cx="212.062" cy="226.3" rx="15.934" ry="15.934"/>
<ellipse transform="matrix(0.9601 -0.2798 0.2798 0.9601 -92.5015 86.9622)" cx="258.321" cy="367.453" rx="15.934" ry="15.934"/>
<ellipse transform="matrix(0.8877 -0.4604 0.4604 0.8877 -57.9065 227.5355)" cx="437.532" cy="232.485" rx="15.934" ry="15.934"/>
</svg>
