<?xml version="1.0" encoding="utf-8"?>
<svg version="1.1" id="Layer_1" xmlns="http://www.w3.org/2000/svg" xmlns:xlink="http://www.w3.org/1999/xlink" x="0px" y="0px"
	 viewBox="0 0 512 512" enable-background="new 0 0 512 512" xml:space="preserve">
<ellipse transform="matrix(0.9282 -0.3722 0.3722 0.9282 -89.3558 114.5377)" fill="#FFFFFF" cx="252" cy="288.72" rx="24.882" ry="14.984"/>
<path d="M334,183c0-17.673,14.327-32,32-32c2.763,0,5.443,0.35,8.001,1.008l13.222-24.438C350.587,107.739,305.18,96,256,96
	C134.497,96,36,167.634,36,256c0,21.156,11,62,29,73s124.595-35.956,135.298-18.447C211,328.062,117,376,144.42,392.676
	c21.48,13.063,55.845,19.971,86.907,22.352l8.372-15.474l0.132,0.066l19.042-35.195l0.159,0.08l85.408-157.861
	C338.026,200.793,334,192.367,334,183z M100,289c-17.673,0-32-14.327-32-32s14.327-32,32-32s32,14.327,32,32S117.673,289,100,289z
	 M158,218c-17.673,0-32-14.327-32-32s14.327-32,32-32s32,14.327,32,32S175.673,218,158,218z M256,183c-17.673,0-32-14.327-32-32
	s14.327-32,32-32s32,14.327,32,32S273.673,183,256,183z"/>
<path d="M427.009,155.351L316.001,393.18l0.159,0.08l-8.541,18.3C404.214,394.666,476,331.435,476,256
	C476,217.859,457.639,182.842,427.009,155.351z M408,314c-17.673,0-32-14.327-32-32s14.327-32,32-32s32,14.327,32,32
	S425.673,314,408,314z"/>
<polygon points="262.214,375.063 246.98,403.22 292.085,425.923 305.626,396.914 "/>
<polygon points="243.039,410.193 213.048,465.627 222.313,470.291 246.459,436.544 232.24,475.288 262.175,490.355 288.833,433.242 
	"/>
<polygon points="308.429,390.488 444.255,99.485 418.522,86.532 265.706,368.984 "/>
</svg>
